<mxfile host="65bd71144e">
    <diagram id="MgNiIqyexY6dUCRCn2S5" name="Step2UML">
        <mxGraphModel dx="883" dy="617" grid="1" gridSize="10" guides="1" tooltips="1" connect="1" arrows="1" fold="1" page="1" pageScale="1" pageWidth="827" pageHeight="1169" math="0" shadow="0">
            <root>
                <mxCell id="0"/>
                <mxCell id="1" parent="0"/>
                <mxCell id="3" value="&lt;p style=&quot;margin: 0px ; margin-top: 4px ; text-align: center&quot;&gt;&lt;i&gt;&amp;lt;&amp;lt;Interface&amp;gt;&amp;gt;&lt;/i&gt;&lt;br&gt;&lt;b&gt;BeanFactory&lt;/b&gt;&lt;/p&gt;&lt;p style=&quot;margin: 0px ; margin-left: 4px&quot;&gt;&lt;br&gt;&lt;/p&gt;&lt;hr size=&quot;1&quot;&gt;&lt;p style=&quot;margin: 0px ; margin-left: 4px&quot;&gt;+ getBean(String beanName): Object&lt;br&gt;&lt;br&gt;&lt;/p&gt;" style="verticalAlign=top;align=left;overflow=fill;fontSize=12;fontFamily=Helvetica;html=1;" parent="1" vertex="1">
                    <mxGeometry x="77" y="79" width="210" height="110" as="geometry"/>
                </mxCell>
                <mxCell id="6" value="AbstractBeanFactory" style="swimlane;fontStyle=3;align=center;verticalAlign=top;childLayout=stackLayout;horizontal=1;startSize=26;horizontalStack=0;resizeParent=1;resizeParentMax=0;resizeLast=0;collapsible=1;marginBottom=0;" parent="1" vertex="1">
                    <mxGeometry x="10" y="278" width="370" height="110" as="geometry"/>
                </mxCell>
                <mxCell id="34" value="&lt;span&gt;&amp;nbsp;+ getBean(String beanName): Object&lt;/span&gt;" style="text;html=1;align=left;verticalAlign=middle;resizable=0;points=[];autosize=1;strokeColor=none;fillColor=none;fontStyle=0" vertex="1" parent="6">
                    <mxGeometry y="26" width="370" height="20" as="geometry"/>
                </mxCell>
                <mxCell id="8" value="" style="line;strokeWidth=1;fillColor=none;align=left;verticalAlign=middle;spacingTop=-1;spacingLeft=3;spacingRight=3;rotatable=0;labelPosition=right;points=[];portConstraint=eastwest;" parent="6" vertex="1">
                    <mxGeometry y="46" width="370" height="4" as="geometry"/>
                </mxCell>
                <mxCell id="9" value="&#10;+ create(String beanName, BeanDefinition beanDefinition)：Object&#10;+ getBeanDefinition(String beanName): BeanDefinition" style="text;strokeColor=none;fillColor=none;align=left;verticalAlign=top;spacingLeft=4;spacingRight=4;overflow=hidden;rotatable=0;points=[[0,0.5],[1,0.5]];portConstraint=eastwest;fontStyle=2" parent="6" vertex="1">
                    <mxGeometry y="50" width="370" height="60" as="geometry"/>
                </mxCell>
                <mxCell id="12" value="" style="endArrow=block;dashed=1;endFill=0;endSize=12;html=1;entryX=0.5;entryY=1;entryDx=0;entryDy=0;exitX=0.465;exitY=0.025;exitDx=0;exitDy=0;exitPerimeter=0;" parent="1" source="6" target="3" edge="1">
                    <mxGeometry width="160" relative="1" as="geometry">
                        <mxPoint x="187" y="249" as="sourcePoint"/>
                        <mxPoint x="347" y="249" as="targetPoint"/>
                    </mxGeometry>
                </mxCell>
                <mxCell id="13" value="实现" style="edgeLabel;html=1;align=center;verticalAlign=middle;resizable=0;points=[];" parent="12" vertex="1" connectable="0">
                    <mxGeometry x="-0.225" y="1" relative="1" as="geometry">
                        <mxPoint as="offset"/>
                    </mxGeometry>
                </mxCell>
                <mxCell id="14" value="&lt;p style=&quot;margin: 0px ; margin-top: 4px ; text-align: center&quot;&gt;&lt;i&gt;&amp;lt;&amp;lt;Interface&amp;gt;&amp;gt;&lt;/i&gt;&lt;br&gt;&lt;b&gt;SingletonBeanRegistry&lt;/b&gt;&lt;/p&gt;&lt;p style=&quot;margin: 0px ; margin-left: 4px&quot;&gt;&lt;br&gt;&lt;/p&gt;&lt;hr size=&quot;1&quot;&gt;&lt;p style=&quot;margin: 0px ; margin-left: 4px&quot;&gt;+ getSingleton(String beanName): Object&lt;br&gt;&lt;br&gt;&lt;/p&gt;" style="verticalAlign=top;align=left;overflow=fill;fontSize=12;fontFamily=Helvetica;html=1;" parent="1" vertex="1">
                    <mxGeometry x="520" y="20" width="230" height="90" as="geometry"/>
                </mxCell>
                <mxCell id="19" value="DefaultSingletonBeanRegistry" style="swimlane;fontStyle=1;align=center;verticalAlign=top;childLayout=stackLayout;horizontal=1;startSize=26;horizontalStack=0;resizeParent=1;resizeParentMax=0;resizeLast=0;collapsible=1;marginBottom=0;" parent="1" vertex="1">
                    <mxGeometry x="480" y="252" width="320" height="110" as="geometry"/>
                </mxCell>
                <mxCell id="20" value="- singletonObjects: HashMap&lt;String, Object&gt;" style="text;strokeColor=none;fillColor=none;align=left;verticalAlign=top;spacingLeft=4;spacingRight=4;overflow=hidden;rotatable=0;points=[[0,0.5],[1,0.5]];portConstraint=eastwest;" parent="19" vertex="1">
                    <mxGeometry y="26" width="320" height="26" as="geometry"/>
                </mxCell>
                <mxCell id="21" value="" style="line;strokeWidth=1;fillColor=none;align=left;verticalAlign=middle;spacingTop=-1;spacingLeft=3;spacingRight=3;rotatable=0;labelPosition=right;points=[];portConstraint=eastwest;" parent="19" vertex="1">
                    <mxGeometry y="52" width="320" height="8" as="geometry"/>
                </mxCell>
                <mxCell id="22" value="+ getSingleton(String beanName): Object&#10;+ addSignleTon(String name, Object singletonObject)" style="text;strokeColor=none;fillColor=none;align=left;verticalAlign=top;spacingLeft=4;spacingRight=4;overflow=hidden;rotatable=0;points=[[0,0.5],[1,0.5]];portConstraint=eastwest;" parent="19" vertex="1">
                    <mxGeometry y="60" width="320" height="50" as="geometry"/>
                </mxCell>
                <mxCell id="24" value="" style="endArrow=block;dashed=1;endFill=0;endSize=12;html=1;entryX=0.5;entryY=1;entryDx=0;entryDy=0;" parent="1" edge="1">
                    <mxGeometry width="160" relative="1" as="geometry">
                        <mxPoint x="640" y="250" as="sourcePoint"/>
                        <mxPoint x="639.5" y="110" as="targetPoint"/>
                    </mxGeometry>
                </mxCell>
                <mxCell id="25" value="实现" style="edgeLabel;html=1;align=center;verticalAlign=middle;resizable=0;points=[];" parent="24" vertex="1" connectable="0">
                    <mxGeometry x="-0.225" y="1" relative="1" as="geometry">
                        <mxPoint as="offset"/>
                    </mxGeometry>
                </mxCell>
                <mxCell id="26" value="继承" style="endArrow=block;endSize=16;endFill=0;html=1;entryX=0;entryY=0.5;entryDx=0;entryDy=0;entryPerimeter=0;exitX=1.005;exitY=0.317;exitDx=0;exitDy=0;exitPerimeter=0;" parent="1" source="34" target="21" edge="1">
                    <mxGeometry width="160" relative="1" as="geometry">
                        <mxPoint x="300" y="310" as="sourcePoint"/>
                        <mxPoint x="450" y="300" as="targetPoint"/>
                        <mxPoint as="offset"/>
                    </mxGeometry>
                </mxCell>
                <mxCell id="27" value="&lt;p style=&quot;margin: 0px ; margin-top: 4px ; text-align: center&quot;&gt;&lt;b&gt;&lt;i&gt;AbstractAutoCableBeanFactory&lt;/i&gt;&lt;/b&gt;&lt;/p&gt;&lt;p style=&quot;margin: 0px ; margin-left: 4px&quot;&gt;&lt;br&gt;&lt;/p&gt;&lt;hr size=&quot;1&quot;&gt;&lt;p style=&quot;margin: 0px ; margin-left: 4px&quot;&gt;+ create(String beanName, BeanDefinition beanDefinition): Object&lt;/p&gt;" style="verticalAlign=top;align=left;overflow=fill;fontSize=12;fontFamily=Helvetica;html=1;" parent="1" vertex="1">
                    <mxGeometry x="11" y="452" width="378" height="90" as="geometry"/>
                </mxCell>
                <mxCell id="28" value="继承" style="endArrow=block;endSize=16;endFill=0;html=1;entryX=0.462;entryY=1.069;entryDx=0;entryDy=0;entryPerimeter=0;exitX=0.449;exitY=-0.033;exitDx=0;exitDy=0;exitPerimeter=0;" parent="1" source="27" target="9" edge="1">
                    <mxGeometry width="160" relative="1" as="geometry">
                        <mxPoint x="20" y="390" as="sourcePoint"/>
                        <mxPoint x="180" y="390" as="targetPoint"/>
                    </mxGeometry>
                </mxCell>
                <mxCell id="29" value="DefaultListableBeanFactory" style="swimlane;fontStyle=1;align=center;verticalAlign=top;childLayout=stackLayout;horizontal=1;startSize=26;horizontalStack=0;resizeParent=1;resizeParentMax=0;resizeLast=0;collapsible=1;marginBottom=0;" vertex="1" parent="1">
                    <mxGeometry x="10" y="620" width="380" height="110" as="geometry"/>
                </mxCell>
                <mxCell id="30" value="- beanDefinitaoinMap: HashMap&lt;String，BeanDefinition&gt;" style="text;strokeColor=none;fillColor=none;align=left;verticalAlign=top;spacingLeft=4;spacingRight=4;overflow=hidden;rotatable=0;points=[[0,0.5],[1,0.5]];portConstraint=eastwest;" vertex="1" parent="29">
                    <mxGeometry y="26" width="380" height="26" as="geometry"/>
                </mxCell>
                <mxCell id="31" value="" style="line;strokeWidth=1;fillColor=none;align=left;verticalAlign=middle;spacingTop=-1;spacingLeft=3;spacingRight=3;rotatable=0;labelPosition=right;points=[];portConstraint=eastwest;" vertex="1" parent="29">
                    <mxGeometry y="52" width="380" height="8" as="geometry"/>
                </mxCell>
                <mxCell id="32" value="+ registerBeanDefinition(String, BeanDefiniton): void&#10;+ getBeanDefinition(String):BeanDefinition" style="text;strokeColor=none;fillColor=none;align=left;verticalAlign=top;spacingLeft=4;spacingRight=4;overflow=hidden;rotatable=0;points=[[0,0.5],[1,0.5]];portConstraint=eastwest;" vertex="1" parent="29">
                    <mxGeometry y="60" width="380" height="50" as="geometry"/>
                </mxCell>
                <mxCell id="33" value="继承" style="endArrow=block;endSize=16;endFill=0;html=1;entryX=0.462;entryY=1.069;entryDx=0;entryDy=0;entryPerimeter=0;exitX=0.439;exitY=0.011;exitDx=0;exitDy=0;exitPerimeter=0;" edge="1" parent="1" source="29">
                    <mxGeometry width="160" relative="1" as="geometry">
                        <mxPoint x="178" y="610" as="sourcePoint"/>
                        <mxPoint x="177.58000000000004" y="542.004" as="targetPoint"/>
                        <Array as="points"/>
                    </mxGeometry>
                </mxCell>
                <mxCell id="36" value="&lt;p style=&quot;margin: 0px ; margin-top: 4px ; text-align: center&quot;&gt;&lt;i&gt;&amp;lt;&amp;lt;Interface&amp;gt;&amp;gt;&lt;/i&gt;&lt;br&gt;&lt;b&gt;BeanDefinitionRegistry&lt;/b&gt;&lt;/p&gt;&lt;hr size=&quot;1&quot;&gt;&lt;p style=&quot;margin: 0px ; margin-left: 4px&quot;&gt;&lt;br&gt;&lt;/p&gt;&lt;hr size=&quot;1&quot;&gt;&lt;p style=&quot;margin: 0px ; margin-left: 4px&quot;&gt;&amp;nbsp;+ registerBeanDefinition(String, BeanDefiniton): void&lt;br&gt;&lt;/p&gt;" style="verticalAlign=top;align=left;overflow=fill;fontSize=12;fontFamily=Helvetica;html=1;" vertex="1" parent="1">
                    <mxGeometry x="495" y="600" width="290" height="140" as="geometry"/>
                </mxCell>
                <mxCell id="37" value="" style="endArrow=block;dashed=1;endFill=0;endSize=12;html=1;entryX=0;entryY=0.5;entryDx=0;entryDy=0;exitX=1;exitY=0.872;exitDx=0;exitDy=0;exitPerimeter=0;" edge="1" parent="1" source="30" target="36">
                    <mxGeometry width="160" relative="1" as="geometry">
                        <mxPoint x="430.04999999999995" y="661.75" as="sourcePoint"/>
                        <mxPoint x="430" y="570" as="targetPoint"/>
                    </mxGeometry>
                </mxCell>
                <mxCell id="38" value="实现" style="edgeLabel;html=1;align=center;verticalAlign=middle;resizable=0;points=[];" vertex="1" connectable="0" parent="37">
                    <mxGeometry x="-0.225" y="1" relative="1" as="geometry">
                        <mxPoint as="offset"/>
                    </mxGeometry>
                </mxCell>
                <mxCell id="39" value="Use" style="endArrow=open;endSize=12;dashed=1;html=1;exitX=0.443;exitY=1.024;exitDx=0;exitDy=0;exitPerimeter=0;" edge="1" parent="1" source="32">
                    <mxGeometry width="160" relative="1" as="geometry">
                        <mxPoint x="210" y="840" as="sourcePoint"/>
                        <mxPoint x="178" y="840" as="targetPoint"/>
                    </mxGeometry>
                </mxCell>
                <mxCell id="40" value="BeanDefinition" style="swimlane;fontStyle=0;childLayout=stackLayout;horizontal=1;startSize=26;fillColor=none;horizontalStack=0;resizeParent=1;resizeParentMax=0;resizeLast=0;collapsible=1;marginBottom=0;" vertex="1" parent="1">
                    <mxGeometry x="110" y="840" width="140" height="52" as="geometry"/>
                </mxCell>
                <mxCell id="41" value="+ beanClazz: Class" style="text;strokeColor=none;fillColor=none;align=left;verticalAlign=top;spacingLeft=4;spacingRight=4;overflow=hidden;rotatable=0;points=[[0,0.5],[1,0.5]];portConstraint=eastwest;" vertex="1" parent="40">
                    <mxGeometry y="26" width="140" height="26" as="geometry"/>
                </mxCell>
            </root>
        </mxGraphModel>
    </diagram>
    <diagram id="rZ6DRIgP8IzRMXK9PKp7" name="getBean">
        <mxGraphModel dx="883" dy="617" grid="1" gridSize="10" guides="1" tooltips="1" connect="1" arrows="1" fold="1" page="1" pageScale="1" pageWidth="827" pageHeight="1169" math="0" shadow="0">
            <root>
                <mxCell id="vH3sXovKEetysc_1eejh-0"/>
                <mxCell id="vH3sXovKEetysc_1eejh-1" parent="vH3sXovKEetysc_1eejh-0"/>
                <mxCell id="Aqtwm94HgmWAzUWAnbE6-2" style="edgeStyle=none;html=1;entryX=0.5;entryY=0;entryDx=0;entryDy=0;" edge="1" parent="vH3sXovKEetysc_1eejh-1" source="Aqtwm94HgmWAzUWAnbE6-0" target="Aqtwm94HgmWAzUWAnbE6-1">
                    <mxGeometry relative="1" as="geometry"/>
                </mxCell>
                <mxCell id="Aqtwm94HgmWAzUWAnbE6-0" value="getSingleton()" style="rounded=0;whiteSpace=wrap;html=1;labelBackgroundColor=none;" vertex="1" parent="vH3sXovKEetysc_1eejh-1">
                    <mxGeometry x="320" y="95" width="120" height="60" as="geometry"/>
                </mxCell>
                <mxCell id="Aqtwm94HgmWAzUWAnbE6-5" value="未缓存" style="edgeStyle=none;html=1;exitX=0.5;exitY=1;exitDx=0;exitDy=0;" edge="1" parent="vH3sXovKEetysc_1eejh-1" source="Aqtwm94HgmWAzUWAnbE6-1" target="Aqtwm94HgmWAzUWAnbE6-3">
                    <mxGeometry relative="1" as="geometry"/>
                </mxCell>
                <mxCell id="Aqtwm94HgmWAzUWAnbE6-9" value="已缓存" style="edgeStyle=none;html=1;exitX=0;exitY=0.5;exitDx=0;exitDy=0;entryX=1;entryY=0.5;entryDx=0;entryDy=0;" edge="1" parent="vH3sXovKEetysc_1eejh-1" source="Aqtwm94HgmWAzUWAnbE6-1" target="Aqtwm94HgmWAzUWAnbE6-8">
                    <mxGeometry relative="1" as="geometry"/>
                </mxCell>
                <mxCell id="Aqtwm94HgmWAzUWAnbE6-1" value="是否已缓存Bean对象" style="rhombus;whiteSpace=wrap;html=1;labelBackgroundColor=none;" vertex="1" parent="vH3sXovKEetysc_1eejh-1">
                    <mxGeometry x="310" y="245" width="140" height="80" as="geometry"/>
                </mxCell>
                <mxCell id="Aqtwm94HgmWAzUWAnbE6-6" style="edgeStyle=none;html=1;exitX=0.5;exitY=1;exitDx=0;exitDy=0;" edge="1" parent="vH3sXovKEetysc_1eejh-1" source="Aqtwm94HgmWAzUWAnbE6-3" target="Aqtwm94HgmWAzUWAnbE6-4">
                    <mxGeometry relative="1" as="geometry"/>
                </mxCell>
                <mxCell id="Aqtwm94HgmWAzUWAnbE6-3" value="&lt;pre style=&quot;background-color: rgb(43 , 43 , 43) ; font-family: &amp;#34;jetbrains mono&amp;#34; , monospace ; font-size: 9.8pt&quot;&gt;&lt;font color=&quot;#ffffff&quot;&gt;getBeanDefinition()&lt;/font&gt;&lt;/pre&gt;" style="rounded=0;whiteSpace=wrap;html=1;labelBackgroundColor=none;" vertex="1" parent="vH3sXovKEetysc_1eejh-1">
                    <mxGeometry x="317" y="387" width="130" height="60" as="geometry"/>
                </mxCell>
                <mxCell id="Aqtwm94HgmWAzUWAnbE6-11" style="edgeStyle=none;html=1;exitX=0.5;exitY=1;exitDx=0;exitDy=0;entryX=0.5;entryY=0;entryDx=0;entryDy=0;" edge="1" parent="vH3sXovKEetysc_1eejh-1" source="Aqtwm94HgmWAzUWAnbE6-4" target="Aqtwm94HgmWAzUWAnbE6-10">
                    <mxGeometry relative="1" as="geometry"/>
                </mxCell>
                <mxCell id="Aqtwm94HgmWAzUWAnbE6-4" value="&lt;pre style=&quot;background-color: rgb(43 , 43 , 43) ; font-family: &amp;#34;jetbrains mono&amp;#34; , monospace ; font-size: 9.8pt&quot;&gt;&lt;font color=&quot;#ffffff&quot;&gt;createBean()&lt;/font&gt;&lt;/pre&gt;" style="rounded=0;whiteSpace=wrap;html=1;labelBackgroundColor=none;" vertex="1" parent="vH3sXovKEetysc_1eejh-1">
                    <mxGeometry x="318" y="495" width="130" height="60" as="geometry"/>
                </mxCell>
                <mxCell id="Aqtwm94HgmWAzUWAnbE6-8" value="return bean" style="rounded=0;whiteSpace=wrap;html=1;labelBackgroundColor=none;" vertex="1" parent="vH3sXovKEetysc_1eejh-1">
                    <mxGeometry x="110" y="255" width="120" height="60" as="geometry"/>
                </mxCell>
                <mxCell id="Aqtwm94HgmWAzUWAnbE6-10" value="return bean" style="rounded=0;whiteSpace=wrap;html=1;labelBackgroundColor=none;" vertex="1" parent="vH3sXovKEetysc_1eejh-1">
                    <mxGeometry x="323" y="605" width="120" height="60" as="geometry"/>
                </mxCell>
                <mxCell id="Aqtwm94HgmWAzUWAnbE6-12" value="&lt;h1 style=&quot;font-size: 18px&quot;&gt;&lt;pre style=&quot;background-color: rgb(43 , 43 , 43) ; font-family: &amp;#34;jetbrains mono&amp;#34; , monospace&quot;&gt;&lt;span style=&quot;font-weight: normal&quot;&gt;&lt;font style=&quot;font-size: 18px&quot;&gt;AbstractBeanFactory&lt;/font&gt;&lt;/span&gt;&lt;/pre&gt;&lt;/h1&gt;&lt;p style=&quot;font-size: 18px&quot;&gt;模板方法getBean&lt;/p&gt;" style="text;html=1;strokeColor=none;fillColor=none;spacing=5;spacingTop=-20;whiteSpace=wrap;overflow=hidden;rounded=0;labelBackgroundColor=none;fontColor=#FFFFFF;" vertex="1" parent="vH3sXovKEetysc_1eejh-1">
                    <mxGeometry x="50" y="40" width="190" height="90" as="geometry"/>
                </mxCell>
            </root>
        </mxGraphModel>
    </diagram>
</mxfile>